<svg preserveAspectRatio="none" overflow="visible" style="display: block;" width="100" height="100" viewBox="0 0 100 100" fill="none" xmlns="http://www.w3.org/2000/svg">
<g id="Icon">
<path id="how-we-deliver-icon-2" d="M77.5 11.5V22.5H88.5V11.5H77.5ZM72 6H77.5H88.5H94V11.5V22.5V28H88.5H77.5H72V22.5V11.5V6ZM55.1562 6.34375L57.2188 8.0625L65.4688 14.9375L68.0469 17L65.4688 19.2344L57.2188 26.1094L55.1562 27.8281L51.5469 23.5312L53.6094 21.8125L56.0156 19.9219H11.5V47.25H91.25H94V50V83V85.75H91.25H77.5V88.5V94H72H61H55.5V88.5V77.5V72H61H72H77.5V77.5V80.25H88.5V52.75H8.75H6V50V17V14.25H8.75H56.0156L53.6094 12.3594L51.5469 10.4688L55.1562 6.34375ZM28 77.5V80.25H39.5156L37.1094 78.3594L35.0469 76.4688L38.6562 72.3438L40.7188 74.0625L48.9688 80.9375L51.5469 83L48.9688 85.2344L40.7188 92.1094L38.6562 93.8281L35.0469 89.5312L37.1094 87.8125L39.5156 85.75H28V88.5V94H22.5H11.5H6V88.5V77.5V72H11.5H22.5H28V77.5ZM22.5 77.5H11.5V88.5H22.5V77.5ZM61 77.5V88.5H72V77.5H61Z" fill="#0A0A0A"/>
</g>
</svg>
