<svg width="146" height="91" viewBox="0 0 146 91" fill="none" xmlns="http://www.w3.org/2000/svg">
<path fill-rule="evenodd" clip-rule="evenodd" d="M107.044 31.5053C107.044 30.5634 106.258 29.7998 105.285 29.7998H102.68C101.706 29.7998 100.921 30.5666 100.921 31.5088L100.922 57.8769C100.922 58.8187 101.708 59.5831 102.681 59.5831H105.286C106.259 59.5831 107.044 58.8156 107.044 57.8737V31.5053Z" fill="black"/>
<path fill-rule="evenodd" clip-rule="evenodd" d="M110.076 32.6052L110.075 33.8583C110.075 34.3773 110.513 34.7962 111.05 34.7962L129.024 34.7958C129.845 34.7958 130.509 34.1557 130.509 33.3621V31.239C130.509 30.4454 129.836 29.7275 129.022 29.8056C129.022 29.8056 111.647 31.4551 111.087 31.5162C110.44 31.5872 110.076 32.0862 110.076 32.6052" fill="black"/>
<path fill-rule="evenodd" clip-rule="evenodd" d="M95.4652 59.5823C90.9936 59.5823 88.18 56.3008 88.18 52.6481L88.1759 42.0978L86.8961 42.0974C86.2142 42.0974 85.6606 41.5649 85.6606 40.9047V39.1388C85.6606 38.4786 86.2162 37.9481 86.8981 37.9481L88.1759 37.9501L88.1743 31.4635C88.1743 30.5449 88.9397 29.8002 89.889 29.8002L92.4287 29.7998C93.378 29.7998 94.1446 30.5496 94.1446 31.4682L94.1455 37.9501L98.1076 37.9485C98.7895 37.9485 99.3447 38.4798 99.3447 39.14V40.9062C99.3447 41.5661 98.792 42.0982 98.1097 42.0982L94.1459 42.0978L94.1491 51.8561C94.1491 53.7718 95.3483 55.0801 97.493 55.0801L97.8529 55.0781C98.5935 55.0781 99.1959 55.6543 99.1959 56.371V58.2886C99.1959 59.0057 98.5959 59.5823 97.8549 59.5823H95.4652Z" fill="black"/>
<path fill-rule="evenodd" clip-rule="evenodd" d="M53.1995 42.2149C55.868 42.2149 58.1713 44.0521 58.4048 46.5385H48.0337C48.2672 44.0525 50.531 42.2149 53.1995 42.2149V37.7012C45.9713 37.7012 41.917 43.1749 41.917 48.9433C41.917 55.0907 46.2595 60.5029 53.2468 60.5029C58.0294 60.5029 62.744 58.0642 63.635 54.0597C63.7553 53.5193 63.3791 52.8106 62.5928 52.8078L59.1756 52.8082C58.5544 52.8082 58.0478 53.0961 57.7421 53.5296C56.7647 54.9163 55.3316 55.6547 53.2138 55.6547C50.2208 55.6547 48.1462 53.3722 47.9893 50.8428L62.5227 50.8424C63.8604 50.8424 64.4588 50.1388 64.4588 48.9429C64.4588 43.3181 61.0183 37.7012 53.1995 37.7012V42.2149Z" fill="black"/>
<path fill-rule="evenodd" clip-rule="evenodd" d="M119.324 42.2149C121.993 42.2149 124.296 44.0521 124.53 46.5385H114.158C114.392 44.0525 116.656 42.2149 119.324 42.2149V37.7012C112.096 37.7012 108.042 43.1749 108.042 48.9433C108.042 55.0907 112.384 60.5029 119.371 60.5029C124.154 60.5029 128.869 58.0642 129.76 54.0597C129.879 53.5193 129.504 52.8106 128.717 52.8078L125.3 52.8082C124.679 52.8082 124.173 53.0961 123.867 53.5296C122.889 54.9163 121.457 55.6547 119.338 55.6547C116.345 55.6547 114.271 53.3722 114.114 50.8428L128.647 50.8424C129.985 50.8424 130.583 50.1388 130.583 48.9429C130.584 43.3181 127.143 37.7012 119.324 37.7012V42.2149Z" fill="black"/>
<path fill-rule="evenodd" clip-rule="evenodd" d="M82.8203 30.3031H35.7453C34.6745 30.3031 33.8108 31.1428 33.8108 32.1793L33.9726 50.0698C33.9726 50.0698 23.8285 32.3391 23.2999 31.4343C22.8026 30.5835 21.7343 29.7998 20.2568 29.7998H16.3855C15.3148 29.7998 14.4482 30.6399 14.4482 31.6764L14.4499 57.9132C14.4499 58.9489 15.316 59.7894 16.3863 59.7894L18.8694 59.7898C19.9401 59.7898 20.8042 58.945 20.8042 57.9096L20.6481 39.5159C20.6481 39.5159 30.8904 57.4237 31.3286 58.1289C31.9196 59.0818 32.9194 59.7898 34.3684 59.7898L37.9242 59.7906C38.9954 59.7906 39.8603 58.9489 39.8603 57.9132L39.8587 34.7494L82.8228 34.7509C83.5536 34.7509 84.1462 34.1806 84.1462 33.473V31.5802C84.1462 30.8726 83.5515 30.3031 82.8203 30.3031" fill="black"/>
<path fill-rule="evenodd" clip-rule="evenodd" d="M75.2749 41.9991C77.3214 41.9991 78.8527 42.7174 79.4042 43.9586C79.6687 44.5546 80.1815 44.6702 80.887 44.6702H83.701C84.1669 44.6702 84.7004 44.2832 84.7004 43.6944C84.7004 40.5276 80.799 37.7012 75.2716 37.7012C69.5556 37.7012 65.8017 40.3367 65.8017 44.5333C65.8017 47.7454 68.4241 49.6568 71.6486 50.472C73.1179 50.8436 75.6262 51.4443 76.8478 51.7539C78.1659 52.088 79.3435 52.4785 79.3435 53.5698C79.3435 55.2926 77.4661 55.8791 75.4172 55.8791C73.4754 55.8791 71.5406 55.0398 70.9862 53.6996C70.6646 52.9234 70.1026 52.8106 69.2495 52.8106H66.387C65.8877 52.8106 65.313 53.2255 65.313 53.8562V54.2127C65.313 57.2777 69.5617 60.4863 75.4216 60.4863C79.5791 60.4863 85.3697 58.8148 85.3697 53.4211C85.3697 50.2985 83.2091 48.1351 79.6944 47.2709C78.3204 46.9337 75.0165 46.1204 74.2983 45.9406C73.0177 45.6203 71.8222 45.216 71.8222 44.1539C71.8222 42.5458 73.358 41.9991 75.2749 41.9991" fill="black"/>
</svg>
