<svg width="156" height="91" viewBox="0 0 156 91" fill="none" xmlns="http://www.w3.org/2000/svg">
<path d="M76.1794 29.109C77.2678 28.8341 78.4366 28.8341 79.5251 29.109L140.766 44.5797C141.419 44.7402 141.419 45.5426 140.766 45.7145L79.5251 61.1852C78.4365 61.4716 77.2793 61.4716 76.1794 61.1852L14.9381 45.7145C14.2849 45.5541 14.2849 44.7516 14.9381 44.5797L76.1794 29.109ZM69.5329 33.4293C69.5901 33.7845 69.372 34.1293 69.2116 34.5875C68.0427 38.117 66.6216 41.7957 65.0631 47.4108C65.0631 47.4108 63.2643 38.529 62.8288 35.1598L56.652 36.4323L56.6979 37.3151C56.7304 37.3074 57.9658 37.027 57.7057 38.6442L56.193 47.6286C55.8952 49.4731 55.6429 51.7415 54.3258 51.7311V51.7428C53.581 51.7314 53.5003 51.513 53.0993 50.4245L49.5241 38.5407L46.0973 38.7584L46.029 39.5495L42.9118 47.0788C42.5337 47.9953 42.5556 48.671 40.9635 48.6139L40.9518 49.5192L44.5505 50.4127L44.5612 49.5075C43.3356 49.3583 43.5987 48.3384 44.0456 47.0895L44.1491 47.1012L48.5729 47.9264L48.8131 48.5915C49.2141 49.8172 49.5343 50.3788 48.5036 50.4821L48.5153 51.3873L54.36 52.8317V52.82L58.485 53.8629L58.4626 52.5905L58.1071 52.4987C57.8091 52.4299 57.0186 52.2351 57.2018 50.4938C57.2477 50.0124 57.5689 48.2469 57.6491 47.6051L58.8063 41.1305L59.4255 38.4381C60.5713 43.1821 60.6395 45.589 62.0719 51.0436C62.5647 52.9229 62.645 53.4961 62.8512 54.8942L65.3151 55.5241C67.021 49.147 69.7338 40.4253 69.7389 40.4088L71.0221 36.7877L71.4694 45.8981C71.6069 47.7087 71.9161 50.505 71.8932 52.7282C71.8703 54.4696 71.4346 55.3067 70.2663 55.2956H70.0368L69.8649 56.6813L77.6686 58.6188L84.7516 56.7848L84.7624 55.7536C83.4592 55.7335 83.1381 55.5553 83.1012 53.3698V49.7125C83.1093 45.0412 83.1614 35.6643 83.445 35.3893C83.8188 35.0277 84.8626 35.3243 84.8883 35.3317C86.5499 35.6071 88.3612 37.8077 88.3268 41.2682C88.2924 43.8807 87.0885 45.7263 85.8395 46.0475C85.5077 46.1162 85.3124 46.1957 85.1178 46.2301C84.4074 46.402 84.1672 46.5859 84.1901 47.1588C84.2247 47.7545 84.9348 47.9833 85.8171 47.9948H85.9889C89.7358 47.7883 92.0047 45.1302 92.0622 41.0739C92.0965 37.9798 90.6981 34.9888 86.9167 33.8541L78.4596 31.7106L78.4372 33.4411C79.674 33.453 79.4454 34.5079 79.4225 36.8795L79.2624 53.5651C79.2394 55.7762 79.1698 57.1629 77.7038 57.152C76.5005 57.1062 76.0759 56.6125 75.904 52.3151L75.1022 40.1334C74.873 34.9539 74.7581 34.0597 75.778 33.5211L76.237 33.2809L76.2936 31.6764L69.5329 33.4293ZM112.965 54.8248C113.526 54.8248 113.974 54.9399 114.295 55.192C114.604 55.4442 114.764 55.8454 114.764 56.3952C114.764 56.945 114.604 57.3462 114.295 57.5983C113.985 57.8504 113.538 57.9645 112.965 57.9645C112.392 57.9644 111.945 57.8389 111.635 57.5983C111.326 57.3577 111.166 56.9451 111.166 56.3952C111.166 55.8453 111.326 55.4442 111.635 55.192C111.945 54.94 112.392 54.8249 112.965 54.8248ZM112.954 55.1461C112.484 55.1461 112.128 55.2372 111.887 55.4206C111.647 55.6039 111.521 55.9368 111.521 56.3952C111.521 56.8532 111.647 57.1854 111.887 57.3688C112.128 57.5522 112.484 57.6442 112.954 57.6442C113.423 57.6441 113.779 57.5521 114.019 57.3688C114.26 57.1855 114.385 56.8533 114.385 56.3952C114.385 55.9368 114.26 55.6039 114.019 55.4206C113.779 55.2373 113.423 55.1462 112.954 55.1461ZM113.308 55.6383C113.515 55.6383 113.652 55.6733 113.744 55.7536C113.835 55.8338 113.882 55.9596 113.882 56.1315C113.881 56.2917 113.847 56.4175 113.767 56.4977C113.687 56.5779 113.549 56.6237 113.366 56.6237L113.905 57.1168V57.151H113.412L112.873 56.6237H112.484V57.151H112.105V55.6383H113.308ZM112.495 56.3034H113.48V55.9596H112.495V56.3034ZM99.2018 36.8327C95.2026 36.7871 92.7507 40.7523 92.7048 45.2672C92.636 50.8594 95.5921 53.5415 99.0299 53.5875C100.737 53.6103 102.526 53.0482 103.798 51.444L103.717 48.9L102.824 48.8776C101.884 51.8567 100.589 51.9825 99.2594 51.9596C97.3343 51.9367 96.0626 49.3014 96.1198 44.6032C96.1656 40.2602 97.8955 38.5404 99.9352 38.5631C101.058 38.5747 101.826 38.9537 102.365 40.9704L103.202 40.9811L103.362 38.6207C102.193 37.4749 101.15 36.8557 99.2018 36.8327ZM109.825 39.2741C107.224 39.2399 104.657 41.4517 104.611 45.1989C104.577 48.0522 106.25 50.8019 109.561 50.8366C112.976 50.8707 114.707 48.0407 114.742 45.027C114.811 40.4893 111.876 39.2972 109.825 39.2741ZM109.711 40.111C111.36 40.1343 112.037 42.1277 111.991 45.5192C111.968 47.1119 111.888 48.4304 111.212 49.2555C110.822 49.7252 110.42 50.0802 109.825 50.069C108.209 50.0458 107.293 48.2811 107.339 44.7174C107.373 41.7837 108.152 40.0995 109.711 40.111ZM48.2174 46.3454L44.6071 45.7838L46.6247 40.8561L48.2174 46.3454Z" fill="black"/>
</svg>
