<svg preserveAspectRatio="none" overflow="visible" style="display: block;" width="75.5625" height="75.5625" viewBox="0 0 75.5625 75.5625" fill="none" xmlns="http://www.w3.org/2000/svg">
<path id="icon-label" d="M8.07422 24.6797C6.24609 28.6406 5.33203 33.2109 5.33203 37.7812C5.33203 50.7305 12.7969 61.6992 23.6133 67.0312L8.07422 24.6797ZM59.5664 36.2578C59.5664 39 58.5 42.1992 57.1289 46.6172L53.9297 57.4336L42.1992 22.6992C44.1797 22.5469 45.8555 22.3945 45.8555 22.3945C47.6836 22.0898 47.3789 19.5 45.7031 19.6523C45.7031 19.6523 40.3711 20.1094 37.0195 20.1094C33.8203 20.1094 28.4883 19.6523 28.4883 19.6523C26.8125 19.5 26.5078 22.2422 28.3359 22.3945C28.3359 22.3945 30.0117 22.5469 31.6875 22.6992L36.7148 36.4102L29.707 57.7383L17.8242 22.6992C19.8047 22.5469 21.6328 22.3945 21.6328 22.3945C23.3086 22.0898 23.1562 19.5 21.3281 19.6523C21.3281 19.6523 16.1484 20.1094 12.6445 20.1094C12.0352 20.1094 11.4258 20.1094 10.6641 20.1094C16.4531 11.2734 26.3555 5.48438 37.7812 5.48438C46.1602 5.48438 53.7773 8.68359 59.5664 14.0156C59.4141 13.8633 59.2617 13.8633 59.1094 13.8633C56.0625 13.8633 53.7773 16.7578 53.7773 19.6523C53.7773 22.3945 55.3008 24.6797 56.9766 27.2695C58.1953 29.4023 59.5664 32.1445 59.5664 36.2578ZM38.2383 40.6758L48.293 67.9453C48.293 68.0977 48.4453 68.25 48.4453 68.4023C45.0938 69.6211 41.4375 70.2305 37.7812 70.2305C34.582 70.2305 31.5352 69.7734 28.4883 69.0117L38.2383 40.6758ZM66.1172 22.2422C68.707 26.9648 70.0781 32.1445 70.0781 37.7812C70.0781 49.8164 63.6797 60.1758 53.9297 65.8125L63.832 37.1719C65.8125 32.6016 66.4219 28.9453 66.4219 25.5938C66.4219 24.375 66.2695 23.3086 66.1172 22.2422ZM75.5625 37.7812C75.5625 17.0625 58.5 0 37.7812 0C16.9102 0 0 17.0625 0 37.7812C0 58.6523 16.9102 75.5625 37.7812 75.5625C58.5 75.5625 75.5625 58.6523 75.5625 37.7812ZM73.7344 37.7812C73.7344 57.7383 57.5859 73.8867 37.7812 73.8867C17.8242 73.8867 1.67578 57.7383 1.67578 37.7812C1.67578 17.9766 17.8242 1.82812 37.7812 1.82812C57.5859 1.82812 73.7344 17.9766 73.7344 37.7812Z" fill="white"/>
</svg>
